<?xml version="1.0" encoding="utf-8"?>
<!-- Generator: Adobe Illustrator 22.0.1, SVG Export Plug-In . SVG Version: 6.00 Build 0)  -->
<svg version="1.1" id="Layer_1" xmlns="http://www.w3.org/2000/svg" xmlns:xlink="http://www.w3.org/1999/xlink" x="0px" y="0px"
	 viewBox="0 0 432 432" style="enable-background:new 0 0 432 432;" xml:space="preserve">
<style type="text/css">
	.st0{fill:#FFFFFF;}
	.st1{fill:#1E1E1E;}
	.st2{fill:#0077BE;}
</style>
<g>
	<rect x="26" y="27" class="st0" width="378" height="378"/>
</g>
<g>
	<g>
		<path class="st1" d="M215.8,360.5c0,0-0.1,0-0.1,0h-72.4v-163h144.5v37H180.2v89h35.5c0.3,0,28.6-0.2,55.8-14.1
			c34.3-17.5,51.7-48.9,51.7-93.4c0-32.3-9.2-57.8-27.4-75.9c-31.4-31.3-79.2-31.6-80-31.6c0,0,0,0,0,0H108.2L107.8,360h-36V72
			l144-0.5c2.5,0,63.9,0.2,106.2,42.4c25.4,25.3,38.3,59.7,38.3,102.1s-12.9,76.9-38.3,102.1C280.2,359.8,219.6,360.5,215.8,360.5z"
			/>
	</g>
	<g>
		<polygon class="st2" points="314.8,360 207.5,234.5 255.5,234.5 359.8,360 		"/>
	</g>
</g>
</svg>
